<?xml version="1.0" encoding="UTF-8"?>
<svg id="Layer_1" data-name="Layer 1" xmlns="http://www.w3.org/2000/svg" viewBox="0 0 512.81 178">
  <defs>
    <style>
      .cls-1 {
        fill: #065866;
      }

      .cls-2 {
        fill: #169e74;
      }
    </style>
  </defs>
  <path class="cls-1" d="m208.09,72.05h-16.95v47.89h16.95c15.26,0,25.43-9.32,25.43-23.73s-10.17-24.16-25.43-24.16Zm-7.2,39.84v-31.79h6.78c10.17,0,15.68,5.93,15.68,16.11s-5.51,15.68-15.68,15.68h-6.78Zm39.84,8.05h9.32v-47.89h-9.75v47.89h.42Zm41.11-48.74c-13.99,0-24.58,10.17-24.58,24.58s10.6,24.58,24.58,24.58c12.71,0,21.61-8.9,23.31-18.65v-8.48h-25.85v7.21h16.53c-1.27,6.78-6.36,11.02-13.56,11.02-8.9,0-14.83-5.93-14.83-15.68s5.93-15.68,14.41-15.68c5.09,0,8.9,2.12,11.44,6.36h11.02c-3.39-9.75-11.87-15.26-22.46-15.26Zm30.51,48.74h9.75v-47.89h-9.75v47.89Z"/>
  <path class="cls-2" d="m80.1,177.15c-5.51,0-11.02-1.27-15.68-4.24l-48.74-27.97c-9.75-5.51-15.68-16.1-15.68-27.55v-56.37c0-11.02,5.93-21.61,15.68-27.12L64,5.93c9.75-5.51,22.04-5.51,31.79,0l48.74,27.97c9.75,5.51,15.68,16.1,15.68,27.55v56.37c0,11.44-5.93,22.04-15.68,27.55l-48.31,27.97c-5.09,2.54-10.6,3.81-16.1,3.81Zm0-158.08c-2.54,0-5.09.42-7.2,1.7l-48.31,27.97c-4.24,2.54-7.2,7.2-7.2,12.29v56.37c0,5.09,2.54,9.75,7.2,12.29l48.31,27.97c4.24,2.54,9.75,2.54,13.99,0l48.74-27.97c4.24-2.54,7.2-7.2,7.2-12.29v-56.37c0-5.09-2.54-9.75-7.2-12.29l-48.31-27.97c-2.12-1.27-4.66-1.7-7.2-1.7Z"/>
  <path class="cls-1" d="m75.84,89.77l-22.75-12.36c-1.01-.55-2.21-.53-3.2.06-.99.59-1.58,1.63-1.58,2.78v28.68c0,.57.15,1.13.44,1.63.29.49.7.9,1.2,1.19l22.75,12.93c.5.28,1.05.43,1.6.43s1.12-.15,1.63-.44c1.01-.59,1.61-1.63,1.61-2.8v-29.25c0-1.19-.65-2.28-1.69-2.84Zm31.91-19.82c0-.59-.16-1.17-.47-1.68-.31-.51-.75-.92-1.28-1.19l-24.81-12.86c-.46-.24-.98-.36-1.5-.36-.52,0-1.03.13-1.5.37l-24.44,12.86c-.52.27-.96.68-1.26,1.19-.3.5-.47,1.08-.47,1.67,0,.59.16,1.17.46,1.67.3.5.74.92,1.26,1.19l24.44,12.94c.46.24.98.37,1.5.38.52,0,1.04-.12,1.51-.37l24.81-12.94c.53-.27.97-.69,1.27-1.19.31-.51.47-1.09.47-1.68Zm2.55,7.52c-.99-.59-2.19-.61-3.2-.06l-22.75,12.36c-.51.28-.94.69-1.24,1.19-.3.5-.45,1.07-.45,1.65v29.25c0,1.16.6,2.21,1.61,2.8.51.3,1.07.44,1.63.44s1.1-.14,1.6-.43l22.75-12.93c.5-.28.91-.69,1.2-1.19.29-.49.44-1.05.44-1.63v-28.68c0-1.15-.59-2.19-1.58-2.78Z"/>
  <path class="cls-2" d="m358.12,80.1v11.87h16.1v7.63h-16.1v12.71h17.8v7.63h-27.55v-47.47h27.55v7.63h-17.8Z"/>
  <path class="cls-2" d="m414.48,75.44c3.81,2.12,6.78,4.66,8.9,8.48,2.12,3.81,2.97,7.63,2.97,12.71,0,4.66-.85,8.9-2.97,12.29-2.12,3.39-5.09,6.36-8.9,8.05-3.81,2.12-8.05,2.97-13.14,2.97h-16.53v-47.47h16.53c4.66,0,9.32.85,13.14,2.97Zm-2.12,32.21c2.54-2.54,4.24-6.36,4.24-11.44s-1.27-8.9-4.24-11.44c-2.54-2.97-6.36-4.24-11.44-4.24h-6.78v31.36h6.78c5.09,0,8.9-1.27,11.44-4.24Z"/>
  <path class="cls-2" d="m466.19,86.88c-1.27-2.12-2.54-3.39-4.66-4.66-2.12-1.27-4.24-1.7-6.78-1.7-2.97,0-5.09.42-7.63,1.7-2.12,1.27-3.81,2.97-5.09,5.51-1.27,2.54-1.27,5.51-1.27,8.48s.42,5.93,1.7,8.48c1.27,2.54,2.97,4.24,5.09,5.51s4.66,1.7,7.63,1.7c3.81,0,6.78-.85,8.9-2.97s3.81-4.66,4.66-8.05h-16.1v-7.2h25.43v8.48c-.42,3.39-2.12,6.36-4.24,9.32s-4.66,5.09-8.05,6.78c-3.39,1.7-6.78,2.54-11.02,2.54-4.66,0-8.9-.85-12.29-2.97-3.81-2.12-6.78-5.09-8.48-8.48s-2.97-7.63-2.97-12.29.85-8.9,2.97-12.71,5.09-6.36,8.48-8.48c3.81-2.12,7.63-2.97,12.29-2.97,5.51,0,10.17,1.27,13.99,3.81,3.81,2.54,6.78,6.36,8.05,11.02h-10.6v-.85Z"/>
  <path class="cls-2" d="m495.01,80.1v11.87h16.1v7.63h-16.1v12.71h17.8v7.63h-27.55v-47.47h27.55v7.63h-17.8Z"/>
</svg>