<svg width="931" height="634" viewBox="0 0 931 634" fill="none" xmlns="http://www.w3.org/2000/svg">
<g clip-path="url(#clip0_348_270)">
<path d="M823.939 297.375H120.363V631.234H823.939V297.375Z" fill="#E6E6E6"/>
<path d="M803.821 326.004H140.482V604.553H803.821V326.004Z" fill="white"/>
<path d="M692.889 377.851H675.712V395.028H692.889V377.851Z" fill="#E6E6E6"/>
<path d="M234.72 377.851H217.543V395.028H234.72V377.851Z" fill="#065866"/>
<path d="M274.304 427.053H217.046V484.311H274.304V427.053Z" fill="#E6E6E6"/>
<path d="M823.639 278.086H120.063V307.976H823.639V278.086Z" fill="#065866"/>
<path d="M142.275 305.202C145.335 305.202 147.815 302.722 147.815 299.662C147.815 296.602 145.335 294.122 142.275 294.122C139.215 294.122 136.735 296.602 136.735 299.662C136.735 302.722 139.215 305.202 142.275 305.202Z" fill="white"/>
<path d="M163.303 305.202C166.363 305.202 168.843 302.722 168.843 299.662C168.843 296.602 166.363 294.122 163.303 294.122C160.243 294.122 157.763 296.602 157.763 299.662C157.763 302.722 160.243 305.202 163.303 305.202Z" fill="white"/>
<path d="M184.332 305.202C187.392 305.202 189.872 302.722 189.872 299.662C189.872 296.602 187.392 294.122 184.332 294.122C181.272 294.122 178.792 296.602 178.792 299.662C178.792 302.722 181.272 305.202 184.332 305.202Z" fill="white"/>
<path d="M931 631.235H0V633.235H931V631.235Z" fill="#E6E6E6"/>
<path d="M473.969 432.78H333.688V440.833H473.969V432.78Z" fill="#E6E6E6"/>
<path d="M550.313 462.154H333.688V470.207H550.313V462.154Z" fill="#065866"/>
<path d="M510.232 489.827H333.688V497.88H510.232V489.827Z" fill="#E6E6E6"/>
<path d="M436.752 517.398H333.688V525.451H436.752V517.398Z" fill="#E6E6E6"/>
<path d="M489.238 544.967H333.688V553.02H489.238V544.967Z" fill="#E6E6E6"/>
<path d="M722.473 377.851H705.296V395.028H722.473V377.851Z" fill="#E6E6E6"/>
<path d="M752.056 377.851H734.879V395.028H752.056V377.851Z" fill="#E6E6E6"/>
<path opacity="0.997" d="M717.171 525.45C736.437 525.45 752.055 509.832 752.055 490.566C752.055 471.3 736.437 455.682 717.171 455.682C697.905 455.682 682.287 471.3 682.287 490.566C682.287 509.832 697.905 525.45 717.171 525.45Z" fill="#065866"/>
<path d="M753.583 94.4571C731.893 94.4571 714.31 76.874 714.31 55.1841C714.31 33.4943 731.893 15.9111 753.583 15.9111C775.273 15.9111 792.856 33.4943 792.856 55.1841C792.856 76.874 775.273 94.4571 753.583 94.4571Z" fill="#2F2E41"/>
<path d="M851.319 391.209H868.519L876.7 324.883H851.321L851.319 391.209Z" fill="#FEB8B8"/>
<path d="M880.797 386.295H847.634V407.176H901.678C901.678 401.638 899.478 396.327 895.562 392.411C891.646 388.495 886.335 386.295 880.797 386.295Z" fill="#2F2E41"/>
<path d="M878.162 381.612L894.568 376.463L882.516 310.728L858.302 318.328L878.162 381.612Z" fill="#FEB8B8"/>
<path d="M904.826 368.1L873.183 378.03L879.436 397.953L931 381.771C930.179 379.154 928.851 376.726 927.091 374.623C925.331 372.52 923.174 370.784 920.744 369.514C918.313 368.245 915.656 367.467 912.925 367.224C910.193 366.981 907.441 367.279 904.825 368.1L904.826 368.1Z" fill="#2F2E41"/>
<path d="M872.567 355.145C873.318 355.145 874.063 355.01 874.767 354.745L887.422 350.002C888.842 349.465 890.022 348.435 890.746 347.1C891.471 345.766 891.692 344.215 891.369 342.731C888.184 328.41 877.329 279.654 871.385 253.503C864.336 222.484 761.5 216.72 757.126 216.49L756.766 216.471L745.198 231.002C741.018 244.438 742.343 254.918 749.136 262.152C768.959 283.257 828.142 270.161 835.199 268.504L866.654 351.081C867.112 352.277 867.922 353.305 868.978 354.031C870.033 354.757 871.283 355.145 872.564 355.145H872.567Z" fill="#2F2E41"/>
<path d="M854.333 364.964C855.084 364.964 855.829 364.828 856.533 364.564L869.184 359.82C870.604 359.283 871.784 358.253 872.509 356.918C873.233 355.583 873.454 354.033 873.131 352.549C869.946 338.228 859.091 289.472 853.147 263.321C846.098 232.302 743.262 226.538 738.888 226.308L738.528 226.289L726.964 240.824C722.784 254.26 724.109 264.74 730.902 271.974C750.724 293.074 809.908 279.983 816.965 278.325L848.424 360.899C848.882 362.095 849.692 363.123 850.748 363.849C851.803 364.574 853.053 364.963 854.334 364.963L854.333 364.964Z" fill="#2F2E41"/>
<path d="M890.934 162.955C890.469 163.577 890.054 164.234 889.693 164.921L820.515 172.209L810.555 158.555L787.986 170.89L807.545 204.022L892.386 182.39C894.526 184.477 897.252 185.863 900.199 186.363C903.146 186.864 906.176 186.455 908.885 185.191C911.595 183.928 913.855 181.869 915.366 179.29C916.877 176.71 917.567 173.732 917.344 170.751C917.121 167.77 915.996 164.927 914.118 162.601C912.24 160.275 909.698 158.576 906.831 157.729C903.964 156.883 900.907 156.93 898.067 157.863C895.227 158.796 892.738 160.572 890.932 162.954L890.934 162.955Z" fill="#FEB8B8"/>
<path d="M730.175 246.388C731.175 246.386 732.16 246.146 733.05 245.688C746.883 238.654 773.819 226.473 798.797 223.924C799.652 223.84 800.479 223.579 801.227 223.156C801.975 222.734 802.626 222.159 803.139 221.47C803.661 220.774 804.035 219.977 804.236 219.13C804.437 218.283 804.462 217.403 804.308 216.546C802.054 204.069 796.884 172.297 797.55 146.834C797.746 139.005 795.272 131.342 790.536 125.105C785.799 118.868 779.081 114.428 771.487 112.515C766.916 111.309 762.273 110.394 757.587 109.774C752.199 109.092 746.726 109.681 741.606 111.494C736.487 113.307 731.863 116.294 728.105 120.216C724.348 124.137 721.561 128.884 719.968 134.077C718.375 139.269 718.02 144.762 718.932 150.116C723.386 176.504 727.877 213.36 723.974 239.088C723.795 240.241 723.938 241.422 724.388 242.498C724.838 243.575 725.578 244.506 726.525 245.188C727.584 245.964 728.862 246.384 730.175 246.388Z" fill="#CCCCCC"/>
<path d="M796.269 179.27C797.131 179.269 797.984 179.091 798.775 178.747L816.796 170.947C818.331 170.281 819.539 169.032 820.154 167.476C820.77 165.92 820.744 164.184 820.081 162.647L806.151 130.468C805.323 128.518 804.12 126.75 802.609 125.266C801.098 123.781 799.31 122.608 797.346 121.814C795.382 121.021 793.281 120.621 791.163 120.64C789.045 120.658 786.951 121.093 785.001 121.921C783.051 122.748 781.284 123.952 779.799 125.462C778.314 126.973 777.141 128.761 776.347 130.725C775.554 132.689 775.155 134.79 775.173 136.908C775.191 139.026 775.626 141.12 776.454 143.07C776.484 143.141 776.515 143.212 776.546 143.282L790.476 175.462C790.966 176.592 791.775 177.554 792.804 178.23C793.833 178.906 795.037 179.268 796.269 179.27Z" fill="#CCCCCC"/>
<path d="M755.018 98.8272C735.992 98.8272 720.568 83.4035 720.568 64.3772C720.568 45.351 735.992 29.9272 755.018 29.9272C774.044 29.9272 789.468 45.351 789.468 64.3772C789.468 83.4035 774.044 98.8272 755.018 98.8272Z" fill="#FEB8B8"/>
<path d="M790.088 47.4482C773.77 57.4094 755.374 63.471 736.331 65.1612L741.998 58.3722C737.872 59.8976 733.531 60.7597 729.135 60.9262C726.934 60.99 724.749 60.537 722.755 59.6036C720.76 58.6701 719.013 57.2822 717.652 55.5512C716.541 53.7545 715.881 51.7157 715.728 49.6088C715.576 47.5019 715.935 45.3893 716.775 43.4512C718.502 39.584 721.189 36.223 724.582 33.6882C730.596 28.9308 737.693 25.7352 745.242 24.3862C752.79 23.0371 760.555 23.5765 767.845 25.9562C772.845 27.4505 777.324 30.3232 780.767 34.2452C784.033 38.2742 790.32 41.8642 788.648 46.7732L790.088 47.4482Z" fill="#2F2E41"/>
<path d="M751.938 18.4271C745.071 11.462 736.761 6.08683 727.593 2.68004C721.773 0.231991 715.391 -0.560171 709.15 0.391043C702.997 1.62904 697.179 5.88505 695.462 11.922C694.062 16.858 695.508 22.173 697.686 26.822C699.864 31.471 702.772 35.778 704.534 40.598C706.331 45.5163 706.872 50.8056 706.107 55.9858C705.341 61.166 703.294 66.073 700.151 70.2614C697.009 74.4498 692.869 77.7868 688.11 79.9697C683.35 82.1526 678.12 83.112 672.896 82.7611C678.941 83.5721 684.513 86.413 690.422 87.924C696.331 89.435 703.305 89.334 707.696 85.1C712.342 80.621 712.435 73.3391 712.21 66.8901L711.21 38.128C711.04 33.239 710.894 28.193 712.658 23.628C714.422 19.063 718.612 15.0681 723.504 15.1101C727.212 15.1411 730.493 17.388 733.467 19.603C736.441 21.818 739.588 24.1811 743.281 24.5111C746.974 24.8411 751.191 22.111 750.915 18.411" fill="#2F2E41"/>
<path d="M812.937 237.538C815.219 237.535 817.473 237.026 819.535 236.048C821.597 235.069 823.417 233.645 824.862 231.879C826.308 230.112 827.344 228.047 827.895 225.832C828.447 223.617 828.5 221.308 828.052 219.07C827.603 216.832 826.664 214.721 825.301 212.89C823.939 211.058 822.187 209.552 820.172 208.479C818.157 207.406 815.93 206.794 813.65 206.685C811.37 206.577 809.094 206.976 806.987 207.853C806.353 208.121 805.738 208.432 805.148 208.785L742.393 180.614L740.63 163.594L713.579 162.87L713.758 191.205C713.791 194.488 714.881 197.673 716.868 200.286C718.854 202.9 721.631 204.804 724.785 205.714L798.17 226.599C798.311 227.084 798.478 227.561 798.67 228.028C799.847 230.84 801.828 233.243 804.365 234.934C806.902 236.626 809.881 237.531 812.93 237.537L812.937 237.538Z" fill="#FEB8B8"/>
<path d="M715.87 176.754C716.639 177.143 717.48 177.371 718.341 177.422L737.941 178.627C739.611 178.728 741.253 178.162 742.507 177.054C743.76 175.946 744.523 174.385 744.628 172.715L746.779 137.715C747.036 133.448 745.59 129.253 742.756 126.052C739.923 122.851 735.935 120.905 731.668 120.643C727.401 120.38 723.205 121.822 720 124.652C716.796 127.482 714.846 131.468 714.579 135.734L712.427 170.734C712.352 171.964 712.638 173.188 713.249 174.258C713.86 175.327 714.77 176.195 715.868 176.754H715.87Z" fill="#CCCCCC"/>
<path d="M755.337 231.258H872.406C873.388 231.258 874.184 232.054 874.184 233.036V239.298C874.184 240.28 873.388 241.076 872.406 241.076H755.337C754.355 241.076 753.559 240.28 753.559 239.298V233.036C753.559 232.054 754.355 231.258 755.337 231.258Z" fill="#3F3D56"/>
<path d="M919.167 231.96V163.231C919.164 160.814 918.202 158.497 916.493 156.788C914.784 155.079 912.467 154.117 910.05 154.114H785.217C782.8 154.117 780.482 155.078 778.773 156.787C777.064 158.497 776.102 160.814 776.1 163.231V231.96C776.102 234.377 777.064 236.695 778.773 238.404C780.482 240.113 782.8 241.075 785.217 241.077H910.05C912.467 241.074 914.784 240.113 916.493 238.404C918.202 236.695 919.164 234.377 919.167 231.96Z" fill="#3F3D56"/>
<path d="M846.132 206.015C841.484 206.015 837.716 202.247 837.716 197.599C837.716 192.951 841.484 189.183 846.132 189.183C850.78 189.183 854.548 192.951 854.548 197.599C854.548 202.247 850.78 206.015 846.132 206.015Z" fill="white"/>
</g>
<defs>
<clipPath id="clip0_348_270">
<rect width="931" height="633.235" fill="white"/>
</clipPath>
</defs>
</svg>
