<svg width="161" height="176" viewBox="0 0 161 176" fill="none" xmlns="http://www.w3.org/2000/svg">
<path d="M80.1 175.352C74.59 175.352 69.08 174.083 64.42 171.113L15.68 143.143C5.93 137.633 0 127.042 0 115.592V59.2225C0 48.2025 5.93 37.6125 15.68 32.1025L64 4.1325C73.75 -1.3775 86.04 -1.3775 95.79 4.1325L144.53 32.1025C154.28 37.6125 160.21 48.2025 160.21 59.6525V116.022C160.21 127.462 154.28 138.062 144.53 143.572L96.22 171.542C91.13 174.082 85.62 175.352 80.12 175.352H80.1ZM80.1 17.2725C77.56 17.2725 75.01 17.6925 72.9 18.9725L24.59 46.9425C20.35 49.4825 17.39 54.1425 17.39 59.2325V115.603C17.39 120.693 19.93 125.353 24.59 127.893L72.9 155.863C77.14 158.403 82.65 158.403 86.89 155.863L135.63 127.893C139.87 125.353 142.83 120.693 142.83 115.603V59.2325C142.83 54.1425 140.29 49.4825 135.63 46.9425L87.32 18.9725C85.2 17.7025 82.66 17.2725 80.12 17.2725H80.1Z" fill="#169E74"/>
<path d="M75.84 87.9725L53.09 75.6125C52.08 75.0625 50.88 75.0825 49.89 75.6725C48.9 76.2625 48.31 77.3025 48.31 78.4525V107.132C48.31 107.702 48.46 108.262 48.75 108.762C49.04 109.252 49.45 109.662 49.95 109.952L72.7 122.882C73.2 123.162 73.75 123.312 74.3 123.312C74.85 123.312 75.42 123.162 75.93 122.872C76.94 122.282 77.54 121.243 77.54 120.073V90.8225C77.54 89.6325 76.89 88.5425 75.85 87.9825L75.84 87.9725ZM107.75 68.1525C107.75 67.5625 107.59 66.9825 107.28 66.4725C106.97 65.9625 106.53 65.5525 106 65.2825L81.19 52.4225C80.73 52.1825 80.21 52.0625 79.69 52.0625C79.17 52.0625 78.66 52.1925 78.19 52.4325L53.75 65.2925C53.23 65.5625 52.79 65.9725 52.49 66.4825C52.19 66.9825 52.02 67.5625 52.02 68.1525C52.02 68.7425 52.18 69.3225 52.48 69.8225C52.78 70.3225 53.22 70.7425 53.74 71.0125L78.18 83.9525C78.64 84.1925 79.16 84.3225 79.68 84.3325C80.2 84.3325 80.72 84.2125 81.19 83.9625L106 71.0225C106.53 70.7525 106.97 70.3325 107.27 69.8325C107.58 69.3225 107.74 68.7425 107.74 68.1525H107.75ZM110.3 75.6725C109.31 75.0825 108.11 75.0625 107.1 75.6125L84.35 87.9725C83.84 88.2525 83.41 88.6625 83.11 89.1625C82.81 89.6625 82.66 90.2325 82.66 90.8125V120.062C82.66 121.222 83.26 122.273 84.27 122.863C84.78 123.163 85.34 123.302 85.9 123.302C86.46 123.302 87 123.162 87.5 122.872L110.25 109.942C110.75 109.662 111.16 109.253 111.45 108.753C111.74 108.263 111.89 107.702 111.89 107.122V78.4425C111.89 77.2925 111.3 76.2525 110.31 75.6625L110.3 75.6725Z" fill="#065866"/>
</svg>
