<svg width="173" height="60" viewBox="0 0 173 60" fill="none" xmlns="http://www.w3.org/2000/svg">
<g clip-path="url(#clip0_105_18)">
<path d="M70.0846 24.2664H64.3759V40.3957H70.0846C75.2242 40.3957 78.6494 37.2568 78.6494 32.4035C78.6494 27.5502 75.2242 24.2664 70.0846 24.2664ZM67.6597 37.6845V26.9776H69.9432C73.3684 26.9776 75.2242 28.9748 75.2242 32.4035C75.2242 35.8321 73.3684 37.6845 69.9432 37.6845H67.6597ZM81.0778 40.3957H84.2168V24.2664H80.933V40.3957H81.0744H81.0778ZM94.9236 23.9801C90.2118 23.9801 86.6451 27.4054 86.6451 32.2587C86.6451 37.1119 90.2152 40.5372 94.9236 40.5372C99.2044 40.5372 102.202 37.5397 102.774 34.2559V31.3998H94.0682V33.8281H99.6355C99.2077 36.1116 97.4934 37.5397 95.0684 37.5397C92.0709 37.5397 90.0737 35.5425 90.0737 32.2587C90.0737 28.9748 92.0709 26.9776 94.927 26.9776C96.6413 26.9776 97.9245 27.6916 98.78 29.1197H102.492C101.35 25.8359 98.4937 23.9801 94.927 23.9801H94.9236ZM105.199 40.3957H108.483V24.2664H105.199V40.3957Z" fill="white"/>
<path d="M26.9777 59.6635C25.1219 59.6635 23.2662 59.2358 21.6967 58.2355L5.28103 48.8152C1.99723 46.9594 0 43.3927 0 39.5363V20.5509C0 16.8393 1.99723 13.2726 5.28103 11.4169L21.5552 1.99656C24.839 0.140794 28.9783 0.140794 32.2621 1.99656L48.6777 11.4169C51.9615 13.2726 53.9588 16.8393 53.9588 20.6957V39.6811C53.9588 43.5341 51.9615 47.1042 48.6777 48.96L32.4069 58.3803C30.6926 59.2358 28.8368 59.6635 26.9844 59.6635H26.9777ZM26.9777 6.42212C26.1222 6.42212 25.2634 6.56357 24.5527 6.99468L8.28192 16.415C6.85388 17.2705 5.85695 18.8399 5.85695 20.5543V39.5397C5.85695 41.254 6.71243 42.8235 8.28192 43.679L24.5527 53.0993C25.9808 53.9547 27.8365 53.9547 29.2646 53.0993L45.6802 43.679C47.1082 42.8235 48.1052 41.254 48.1052 39.5397V20.5543C48.1052 18.8399 47.2497 17.2705 45.6802 16.415L29.4094 6.99468C28.6954 6.56694 27.8399 6.42212 26.9844 6.42212H26.9777Z" fill="white"/>
<path d="M25.5417 30.2351L17.8795 26.0722C17.5393 25.887 17.1352 25.8937 16.8017 26.0924C16.4683 26.2911 16.2696 26.6414 16.2696 27.0287V36.6882C16.2696 36.8801 16.3201 37.0687 16.4178 37.2371C16.5155 37.4022 16.6536 37.5403 16.822 37.6379L24.4842 41.9928C24.6526 42.0871 24.8378 42.1376 25.023 42.1376C25.2083 42.1376 25.4003 42.0871 25.572 41.9894C25.9122 41.7907 26.1143 41.4404 26.1143 41.0463V31.1949C26.1143 30.7941 25.8953 30.427 25.5451 30.2384L25.5417 30.2351ZM36.289 23.5597C36.289 23.361 36.2351 23.1656 36.1307 22.9939C36.0263 22.8221 35.8781 22.684 35.6996 22.5931L27.3436 18.2618C27.1887 18.181 27.0135 18.1406 26.8384 18.1406C26.6633 18.1406 26.4915 18.1843 26.3332 18.2652L18.1018 22.5964C17.9267 22.6874 17.7785 22.8255 17.6774 22.9972C17.5764 23.1656 17.5191 23.361 17.5191 23.5597C17.5191 23.7584 17.573 23.9537 17.6741 24.1221C17.7751 24.2905 17.9233 24.432 18.0984 24.5229L26.3298 28.8811C26.4847 28.962 26.6599 29.0057 26.835 29.0091C27.0102 29.0091 27.1853 28.9687 27.3436 28.8845L35.6996 24.5263C35.8781 24.4354 36.0263 24.2939 36.1273 24.1255C36.2317 23.9537 36.2856 23.7584 36.2856 23.5597H36.289ZM37.1478 26.0924C36.8144 25.8937 36.4102 25.887 36.0701 26.0722L28.4079 30.2351C28.2361 30.3294 28.0913 30.4675 27.9902 30.6359C27.8892 30.8043 27.8387 30.9962 27.8387 31.1916V41.043C27.8387 41.4337 28.0408 41.7873 28.3809 41.986C28.5527 42.0871 28.7413 42.1342 28.9299 42.1342C29.1185 42.1342 29.3004 42.0871 29.4688 41.9894L37.131 37.6346C37.2994 37.5403 37.4375 37.4022 37.5352 37.2338C37.6328 37.0687 37.6834 36.8801 37.6834 36.6848V27.0254C37.6834 26.638 37.4846 26.2878 37.1512 26.089L37.1478 26.0924Z" fill="white"/>
<path d="M120.614 26.9769V30.9748H126.036V33.5446H120.614V37.8253H126.609V40.3951H117.33V24.4072H126.609V26.9769H120.614Z" fill="white"/>
<path d="M139.597 25.4075C140.88 26.1215 141.881 26.9769 142.595 28.2635C143.309 29.5467 143.595 30.8333 143.595 32.5443C143.595 34.1137 143.309 35.5418 142.595 36.6835C141.881 37.8253 140.88 38.8256 139.597 39.3948C138.314 40.1088 136.886 40.3951 135.172 40.3951H129.604V24.4072H135.172C136.741 24.4072 138.311 24.6934 139.597 25.4075ZM138.883 36.2558C139.739 35.4003 140.311 34.1137 140.311 32.4028C140.311 30.6919 139.884 29.4053 138.883 28.5498C138.028 27.5495 136.741 27.1218 135.03 27.1218H132.747V37.6838H135.03C136.745 37.6838 138.028 37.2561 138.883 36.2558Z" fill="white"/>
<path d="M157.012 29.2613C156.584 28.5472 156.157 28.1195 155.443 27.6918C154.729 27.264 154.015 27.1192 153.159 27.1192C152.159 27.1192 151.445 27.2607 150.589 27.6918C149.875 28.1195 149.306 28.6921 148.875 29.5475C148.447 30.403 148.447 31.4033 148.447 32.4036C148.447 33.4039 148.589 34.4008 149.02 35.2597C149.448 36.1151 150.02 36.6877 150.734 37.1154C151.448 37.5432 152.304 37.688 153.304 37.688C154.587 37.688 155.588 37.4017 156.302 36.6877C157.016 35.9737 157.585 35.1182 157.871 33.9765H152.449V31.5515H161.013V34.4076C160.872 35.5493 160.299 36.5496 159.585 37.5465C158.871 38.5435 158.016 39.2609 156.874 39.8301C155.732 40.4026 154.591 40.6855 153.163 40.6855C151.593 40.6855 150.165 40.3992 149.023 39.6852C147.74 38.9712 146.74 37.9709 146.167 36.8292C145.595 35.6874 145.167 34.2594 145.167 32.6899C145.167 31.1204 145.453 29.6924 146.167 28.4092C146.881 27.1259 147.882 26.2671 149.023 25.5531C150.307 24.8391 151.593 24.5528 153.163 24.5528C155.018 24.5528 156.588 24.9805 157.874 25.836C159.158 26.6915 160.158 27.9781 160.586 29.5475H157.016V29.2613H157.012Z" fill="white"/>
<path d="M166.718 26.9769V30.9748H172.141V33.5446H166.718V37.8253H172.713V40.3951H163.435V24.4072H172.713V26.9769H166.718Z" fill="white"/>
</g>
<defs>
<clipPath id="clip0_105_18">
<rect width="172.715" height="59.9504" fill="white"/>
</clipPath>
</defs>
</svg>
